<svg width="90" height="90" xmlns="http://www.w3.org/2000/svg"><g fill="none" fill-rule="evenodd"><rect stroke="#139FF0" stroke-width="1.5" x="62.75" y="31.75" width="26.5" height="26.5" rx="4"/><rect stroke="#139FF0" stroke-width="1.5" x="62.75" y=".75" width="26.5" height="26.5" rx="4"/><rect stroke="#139FF0" stroke-width="1.5" x="31.75" y=".75" width="26.5" height="26.5" rx="4"/><rect stroke="#139FF0" stroke-width="1.5" x=".75" y=".75" width="26.5" height="26.5" rx="4"/><rect stroke="#139FF0" stroke-width="1.5" x=".75" y="31.75" width="26.5" height="26.5" rx="4"/><rect stroke="#139FF0" stroke-width="1.5" x=".75" y="62.75" width="26.5" height="26.5" rx="4"/><rect stroke="#139FF0" stroke-width="1.5" x="31.75" y="62.75" width="26.5" height="26.5" rx="4"/><rect stroke="#139FF0" stroke-width="1.5" x="62.75" y="62.75" width="26.5" height="26.5" rx="4"/><rect x=".75" y=".75" width="26.5" height="26.5" rx="4" transform="translate(31 31)" stroke="#139FF0" stroke-width="1.5"/><path d="M45 21c3.314 0 6-3.134 6-7s-1.23-7-6-7-6 3.134-6 7 2.686 7 6 7z" fill-opacity=".2" fill="#139FF0" fill-rule="nonzero"/><path d="M45 56v8.705l1.717-1.487L48.82 68l1.694-.846-2.128-4.556H51z" fill="#139FF0"/><path stroke="#FFF" stroke-width="1.5" d="M49.564 63.348l1.938 4.15-3.052 1.525-2.01-4.573-2.19 1.896V54.061l8.446 9.287z"/><path d="M39.664 74.417C40.897 71.32 43.078 70 44.785 70c1.708 0 3.859 1.405 5.039 4.417.892 2.28.892 5.094 0 8.444h-10.16c-.885-3.407-.885-6.221 0-8.444zM67 73h18v6H67zm.942-59.058l4.499-2.811L75.884 6l2.918 4.73 5.024 3.212-4.551 3.04-3.391 4.902-3.088-4.902z" fill="#D0ECFC" fill-rule="nonzero"/><path fill="#139FF0" fill-rule="nonzero" d="M44.5 49.75l-4.996 2.627.954-5.564-4.042-3.94 5.586-.811L44.5 37l2.498 5.062 5.586.811-4.042 3.94.954 5.564z"/><path fill="#D0ECFC" fill-rule="nonzero" d="M13.392 6.94L6.424 20.845h14.124zM7 39h12v12H7zm68.5-1l7.133 5.182-2.725 8.386h-8.816l-2.725-8.386zM12 69h3v14h-3z"/><path fill="#D0ECFC" fill-rule="nonzero" d="M20.5 74.5v3h-14v-3z"/></g></svg>